<svg width="180" height="180" viewBox="0 0 180 180" fill="none" xmlns="http://www.w3.org/2000/svg">
<path d="M180 90C180 139.706 139.706 180 90 180C40.2944 180 0 139.706 0 90C0 40.2944 40.2944 0 90 0C139.706 0 180 40.2944 180 90Z" fill="#856363"/>
<path d="M152.214 55.992L133.182 129H111.654L100.006 80.952L87.9416 129H66.4136L47.9016 55.992H66.9336L77.4376 109.136L90.4376 55.992H109.99L122.47 109.136L133.078 55.992H152.214Z" fill="url(#paint0_linear_2_15)"/>
<path d="M83.312 80.1672C83.312 84.0712 82.416 87.6552 80.624 90.9192C78.832 94.1192 76.08 96.7112 72.368 98.6952C68.656 100.679 64.048 101.671 58.544 101.671H48.368V125.863H31.952V58.4712H58.544C63.92 58.4712 68.464 59.3992 72.176 61.2552C75.888 63.1112 78.672 65.6712 80.528 68.9352C82.384 72.1992 83.312 75.9432 83.312 80.1672ZM57.296 88.6152C60.432 88.6152 62.768 87.8792 64.304 86.4072C65.84 84.9352 66.608 82.8552 66.608 80.1672C66.608 77.4792 65.84 75.3992 64.304 73.9272C62.768 72.4552 60.432 71.7192 57.296 71.7192H48.368V88.6152H57.296Z" fill="url(#paint1_linear_2_15)"/>
<path d="M80.624 90.9192L84.114 92.8736L84.1222 92.8589L84.1303 92.8442L80.624 90.9192ZM72.368 98.6952L70.4825 95.1675L70.4825 95.1675L72.368 98.6952ZM48.368 101.671V97.6712H44.368V101.671H48.368ZM48.368 125.863V129.863H52.368V125.863H48.368ZM31.952 125.863H27.952V129.863H31.952V125.863ZM31.952 58.4712V54.4712H27.952V58.4712H31.952ZM72.176 61.2552L73.9649 57.6775L73.9649 57.6775L72.176 61.2552ZM48.368 71.7192V67.7192H44.368V71.7192H48.368ZM48.368 88.6152H44.368V92.6152H48.368V88.6152ZM79.312 80.1672C79.312 83.432 78.5699 86.349 77.1177 88.9942L84.1303 92.8442C86.2621 88.9614 87.312 84.7104 87.312 80.1672H79.312ZM77.134 88.9648C75.7682 91.4036 73.6223 93.4893 70.4825 95.1675L74.2535 102.223C78.5377 99.9331 81.8958 96.8347 84.114 92.8736L77.134 88.9648ZM70.4825 95.1675C67.5017 96.7607 63.586 97.6712 58.544 97.6712V105.671C64.51 105.671 69.8103 104.598 74.2535 102.223L70.4825 95.1675ZM58.544 97.6712H48.368V105.671H58.544V97.6712ZM44.368 101.671V125.863H52.368V101.671H44.368ZM48.368 121.863H31.952V129.863H48.368V121.863ZM35.952 125.863V58.4712H27.952V125.863H35.952ZM31.952 62.4712H58.544V54.4712H31.952V62.4712ZM58.544 62.4712C63.4761 62.4712 67.3698 63.3242 70.3872 64.8329L73.9649 57.6775C69.5582 55.4741 64.3639 54.4712 58.544 54.4712V62.4712ZM70.3871 64.8329C73.4679 66.3733 75.6274 68.4092 77.0508 70.9124L84.0052 66.958C81.7166 62.9332 78.3081 59.8491 73.9649 57.6775L70.3871 64.8329ZM77.0508 70.9124C78.523 73.5014 79.312 76.5481 79.312 80.1672H87.312C87.312 75.3382 86.245 70.897 84.0052 66.958L77.0508 70.9124ZM57.296 92.6152C60.98 92.6152 64.5029 91.7569 67.0716 89.2951L61.5364 83.5192C61.0331 84.0015 59.884 84.6152 57.296 84.6152V92.6152ZM67.0716 89.2951C69.5905 86.8812 70.608 83.6412 70.608 80.1672H62.608C62.608 82.0692 62.0895 82.9892 61.5364 83.5192L67.0716 89.2951ZM70.608 80.1672C70.608 76.6932 69.5905 73.4532 67.0716 71.0392L61.5364 76.8151C62.0895 77.3452 62.608 78.2652 62.608 80.1672H70.608ZM67.0716 71.0392C64.5029 68.5775 60.98 67.7192 57.296 67.7192V75.7192C59.884 75.7192 61.0331 76.3329 61.5364 76.8151L67.0716 71.0392ZM57.296 67.7192H48.368V75.7192H57.296V67.7192ZM44.368 71.7192V88.6152H52.368V71.7192H44.368ZM48.368 92.6152H57.296V84.6152H48.368V92.6152Z" fill="url(#paint2_linear_2_15)"/>
<defs>
<linearGradient id="paint0_linear_2_15" x1="172.064" y1="118.476" x2="3.99259" y2="37.1035" gradientUnits="userSpaceOnUse">
<stop offset="0.0760527" stop-color="white"/>
<stop offset="0.695982" stop-color="white" stop-opacity="0"/>
</linearGradient>
<linearGradient id="paint1_linear_2_15" x1="60.1148" y1="19.8632" x2="60.1148" y2="166" gradientUnits="userSpaceOnUse">
<stop offset="0.265625" stop-color="#856363"/>
<stop offset="1" stop-color="#856363" stop-opacity="0"/>
</linearGradient>
<linearGradient id="paint2_linear_2_15" x1="203.5" y1="200" x2="23.5962" y2="4.1866" gradientUnits="userSpaceOnUse">
<stop stop-color="white" stop-opacity="0"/>
<stop offset="1" stop-color="white"/>
</linearGradient>
</defs>
</svg>
