<svg width="200" height="200" viewBox="0 0 200 200" fill="none" xmlns="http://www.w3.org/2000/svg">
<rect width="200" height="200" fill="#856363"/>
<path d="M162.214 65.992L143.182 139H121.654L110.006 90.952L97.9416 139H76.4136L57.9016 65.992H76.9336L87.4376 119.136L100.438 65.992H119.99L132.47 119.136L143.078 65.992H162.214Z" fill="url(#paint0_linear_1_6)"/>
<path d="M93.312 90.1672C93.312 94.0712 92.416 97.6552 90.624 100.919C88.832 104.119 86.08 106.711 82.368 108.695C78.656 110.679 74.048 111.671 68.544 111.671H58.368V135.863H41.952V68.4712H68.544C73.92 68.4712 78.464 69.3992 82.176 71.2552C85.888 73.1112 88.672 75.6712 90.528 78.9352C92.384 82.1992 93.312 85.9432 93.312 90.1672ZM67.296 98.6152C70.432 98.6152 72.768 97.8792 74.304 96.4072C75.84 94.9352 76.608 92.8552 76.608 90.1672C76.608 87.4792 75.84 85.3992 74.304 83.9272C72.768 82.4552 70.432 81.7192 67.296 81.7192H58.368V98.6152H67.296Z" fill="url(#paint1_linear_1_6)"/>
<path d="M90.624 100.919L94.114 102.874L94.1222 102.859L94.1303 102.844L90.624 100.919ZM82.368 108.695L80.4825 105.167L80.4825 105.167L82.368 108.695ZM58.368 111.671V107.671H54.368V111.671H58.368ZM58.368 135.863V139.863H62.368V135.863H58.368ZM41.952 135.863H37.952V139.863H41.952V135.863ZM41.952 68.4712V64.4712H37.952V68.4712H41.952ZM82.176 71.2552L83.9649 67.6775L83.9649 67.6775L82.176 71.2552ZM58.368 81.7192V77.7192H54.368V81.7192H58.368ZM58.368 98.6152H54.368V102.615H58.368V98.6152ZM89.312 90.1672C89.312 93.432 88.5699 96.349 87.1177 98.9942L94.1303 102.844C96.2621 98.9614 97.312 94.7104 97.312 90.1672H89.312ZM87.134 98.9648C85.7682 101.404 83.6223 103.489 80.4825 105.167L84.2535 112.223C88.5377 109.933 91.8958 106.835 94.114 102.874L87.134 98.9648ZM80.4825 105.167C77.5017 106.761 73.586 107.671 68.544 107.671V115.671C74.51 115.671 79.8103 114.598 84.2535 112.223L80.4825 105.167ZM68.544 107.671H58.368V115.671H68.544V107.671ZM54.368 111.671V135.863H62.368V111.671H54.368ZM58.368 131.863H41.952V139.863H58.368V131.863ZM45.952 135.863V68.4712H37.952V135.863H45.952ZM41.952 72.4712H68.544V64.4712H41.952V72.4712ZM68.544 72.4712C73.4761 72.4712 77.3698 73.3242 80.3872 74.8329L83.9649 67.6775C79.5582 65.4741 74.3639 64.4712 68.544 64.4712V72.4712ZM80.3871 74.8329C83.4679 76.3733 85.6274 78.4092 87.0508 80.9124L94.0052 76.958C91.7166 72.9332 88.3081 69.8491 83.9649 67.6775L80.3871 74.8329ZM87.0508 80.9124C88.523 83.5014 89.312 86.5481 89.312 90.1672H97.312C97.312 85.3382 96.245 80.897 94.0052 76.958L87.0508 80.9124ZM67.296 102.615C70.98 102.615 74.5029 101.757 77.0716 99.2951L71.5364 93.5192C71.0331 94.0015 69.884 94.6152 67.296 94.6152V102.615ZM77.0716 99.2951C79.5905 96.8812 80.608 93.6412 80.608 90.1672H72.608C72.608 92.0692 72.0895 92.9892 71.5364 93.5192L77.0716 99.2951ZM80.608 90.1672C80.608 86.6932 79.5905 83.4532 77.0716 81.0392L71.5364 86.8151C72.0895 87.3452 72.608 88.2652 72.608 90.1672H80.608ZM77.0716 81.0392C74.5029 78.5775 70.98 77.7192 67.296 77.7192V85.7192C69.884 85.7192 71.0331 86.3329 71.5364 86.8151L77.0716 81.0392ZM67.296 77.7192H58.368V85.7192H67.296V77.7192ZM54.368 81.7192V98.6152H62.368V81.7192H54.368ZM58.368 102.615H67.296V94.6152H58.368V102.615Z" fill="url(#paint2_linear_1_6)"/>
<defs>
<linearGradient id="paint0_linear_1_6" x1="182.064" y1="128.476" x2="13.9926" y2="47.1035" gradientUnits="userSpaceOnUse">
<stop offset="0.0760527" stop-color="white"/>
<stop offset="0.695982" stop-color="white" stop-opacity="0"/>
</linearGradient>
<linearGradient id="paint1_linear_1_6" x1="70.1148" y1="29.8632" x2="70.1148" y2="176" gradientUnits="userSpaceOnUse">
<stop offset="0.265625" stop-color="#856363"/>
<stop offset="1" stop-color="#856363" stop-opacity="0"/>
</linearGradient>
<linearGradient id="paint2_linear_1_6" x1="213.5" y1="210" x2="33.5962" y2="14.1866" gradientUnits="userSpaceOnUse">
<stop stop-color="white" stop-opacity="0"/>
<stop offset="1" stop-color="white"/>
</linearGradient>
</defs>
</svg>
